HIERARCHY
ROOT Hips
{
   OFFSET 0.00000 0.00000 0.00000
   CHANNELS 6 Xposition Yposition Zposition Zrotation Xrotation Yrotation
   JOINT Spine
   {
      OFFSET 0.000000 13.079551 0.000000
      CHANNELS 3 Zrotation Xrotation Yrotation
      JOINT Spine1
      {
         OFFSET -0.000000 28.223142 0.140426
         CHANNELS 3 Zrotation Xrotation Yrotation
         JOINT HEad
         {
            OFFSET 0.000000 9.607577 0.012474
            CHANNELS 3 Zrotation Xrotation Yrotation
            End Site
            {
               OFFSET -0.319000 14.051621 2.765345
            }
         }
         JOINT LeftShoulder1
         {
            OFFSET 9.889000 -0.398475 -0.242000
            CHANNELS 3 Zrotation Xrotation Yrotation
            JOINT LeftArm
            {
               OFFSET 11.310971 -0.003718 0.354332
               CHANNELS 3 Zrotation Xrotation Yrotation
               JOINT LeftForeArm
               {
                  OFFSET 36.043591 0.109054 -1.566774
                  CHANNELS 3 Zrotation Xrotation Yrotation
                  JOINT LeftHand
                  {
                     OFFSET 30.320732 0.093896 1.124376
                     CHANNELS 3 Zrotation Xrotation Yrotation
                     End Site
                     {
                        OFFSET 18.418731 -0.660000 1.653201
                     }
                  }
               }
            }
         }
         JOINT RightShoulder
         {
            OFFSET -9.889000 -0.398475 -0.242000
            CHANNELS 3 Zrotation Xrotation Yrotation
            JOINT RightArm
            {
               OFFSET -11.310971 -0.003718 0.354332
               CHANNELS 3 Zrotation Xrotation Yrotation
               JOINT RightForeArm
               {
                  OFFSET -36.186809 0.109054 -1.566774
                  CHANNELS 3 Zrotation Xrotation Yrotation
                  JOINT RightHand
                  {
                     OFFSET -30.241313 0.093896 1.124376
                     CHANNELS 3 Zrotation Xrotation Yrotation
                     End Site
                     {
                        OFFSET -18.294322 -0.660000 1.653201
                     }
                  }
               }
            }
         }
      }
   }
   JOINT LeftUpLeg
   {
      OFFSET 9.840380 -9.533777 0.111815
      CHANNELS 3 Zrotation Xrotation Yrotation
      JOINT LeftLeg
      {
         OFFSET 0.000000 -48.864969 1.509970
         CHANNELS 3 Zrotation Xrotation Yrotation
         JOINT LeftFoot
         {
            OFFSET -0.278905 -46.301641 -1.606649
            CHANNELS 3 Zrotation Xrotation Yrotation
            JOINT LeftToes
            {
               OFFSET -0.044000 -4.856599 9.349010
               CHANNELS 3 Zrotation Xrotation Yrotation
               End Site
               {
                  OFFSET 0.088000 -0.052195 10.757769
               }
            }
         }
      }
   }
   JOINT RightUpLeg
   {
      OFFSET -9.840380 -9.533777 0.111815
      CHANNELS 3 Zrotation Xrotation Yrotation
      JOINT RightLeg
      {
         OFFSET 0.000000 -48.864969 1.509970
         CHANNELS 3 Zrotation Xrotation Yrotation
         JOINT RightFoot
         {
            OFFSET 0.278905 -46.301641 -1.606649
            CHANNELS 3 Zrotation Xrotation Yrotation
            JOINT RightToes
            {
               OFFSET 0.044000 -4.856599 9.349010
               CHANNELS 3 Zrotation Xrotation Yrotation
               End Site
               {
                  OFFSET -0.088000 -0.151195 10.757769
               }
            }
         }
      }
   }
}
MOTION
Frames: 18
Frame Time: 0.016670
-68.038496 91.705741 -11.070274 25.614688 49.013506 153.015430 15.533817 53.218310 113.086506 14.059570 -11.117224 -137.561335 -23.585038 33.300618 -8.312387 27.726511 30.781108 -50.302434 160.090509 -105.789843 124.877414 -19.130643 -40.369649 -51.758583 -38.165420 -49.931954 -54.499913 -30.563423 42.895483 67.330905 92.979461 121.112737 206.848837 12.446498 199.664529 67.079650 -17.356752 -18.197405 29.230071 18.078672 23.354189 8.934306 16.211251 17.484956 84.745743 -63.037667 67.907742 6.060720 30.523951 -16.727758 -75.107205 -24.802413 54.976565 44.127390 32.183042 14.667582 38.918445 -56.821781 25.534046 9.068443 52.990903 -73.190121 -53.173873
-68.802504 90.784215 -13.247410 26.594209 49.227072 152.106837 18.960788 52.662896 112.234358 13.220985 -11.079319 -138.518094 -23.537542 32.763680 -8.090983 27.566309 32.970747 -53.777788 159.108656 -102.078495 122.426824 -18.202495 -40.010408 -49.061805 -42.753600 -49.222991 -53.648312 -32.302611 41.803322 66.602329 91.526297 120.875770 208.667197 15.850451 201.391720 66.108848 -18.035702 -17.615678 33.132100 17.364084 23.511509 6.463467 17.594311 17.901666 86.947270 -66.215214 67.477030 6.724066 30.962555 -15.799392 -73.904020 -26.491403 55.846765 45.341900 32.073861 16.104565 39.229478 -56.476795 25.032911 8.736874 52.669494 -74.444950 -53.719977
-69.694294 89.956692 -15.619813 27.515549 51.248716 153.345561 20.125835 51.378121 114.472522 10.974567 -10.269053 -140.524968 -22.340282 29.167694 -8.037923 28.353999 33.463665 -59.609322 164.185098 -100.072551 125.449811 -13.200365 -41.338914 -44.842285 -48.155221 -47.312372 -55.728036 -33.948352 41.468244 67.007161 91.783884 120.590938 209.163082 17.893255 202.355078 63.151547 -18.609445 -16.969895 38.058210 16.620330 23.775581 3.500168 19.080694 19.362845 88.815081 -66.372391 67.256320 6.763985 29.281120 -15.240894 -73.892402 -28.486146 59.158748 46.504770 32.159556 16.580493 39.591960 -55.981740 24.657253 8.641107 52.890465 -75.687259 -53.768366
-70.699452 89.173421 -18.255335 28.425050 51.259999 153.445486 19.979729 52.561147 115.570462 8.019379 -9.375053 -143.201705 -21.326040 27.850216 -7.875055 28.446532 31.792242 -63.979666 168.244430 -97.993147 130.719248 -7.463325 -44.362270 -40.770290 -55.450013 -46.259130 -59.108696 -35.851660 40.949204 67.933840 89.589720 122.045194 208.997942 19.685942 203.040733 60.203951 -19.348760 -16.541125 40.431940 16.235320 23.357666 0.272656 20.720419 21.051563 90.616427 -67.515593 66.554873 6.246340 29.355900 -14.890007 -74.599162 -29.762040 60.420352 47.916649 32.033437 17.210328 39.793024 -55.558354 24.668328 8.598270 53.591252 -77.322891 -53.159478
-71.835526 88.549040 -20.926418 28.199087 50.463613 151.988907 23.294570 51.532196 116.354964 8.475004 -11.796285 -143.086698 -19.745652 28.183567 -7.812790 28.264668 29.258020 -61.008568 173.079507 -98.292890 138.830808 -5.941574 -41.468548 -39.167460 -58.414196 -46.058554 -58.743090 -35.573104 42.605593 69.332028 90.733988 125.599092 205.659919 14.283542 200.458962 61.260670 -13.456892 -16.839292 39.547075 14.981274 23.298424 -1.881662 20.522914 22.881561 92.660846 -67.459005 65.402982 5.963615 28.864270 -14.937470 -75.106673 -31.946260 59.365559 50.089360 30.774490 18.927776 39.625530 -55.057110 25.026776 8.484539 54.824498 -79.709469 -51.954886
-73.056473 88.086346 -23.581571 28.966784 48.422732 150.407664 22.054312 53.268410 118.121797 8.755116 -13.376591 -141.735878 -18.665999 26.419836 -7.617111 26.752020 28.556650 -58.184653 180.425895 -99.778552 147.895193 -4.759410 -37.498770 -42.603209 -57.300786 -48.352419 -58.693694 -34.610047 46.396594 70.457028 92.929232 127.080533 200.506405 8.535160 199.965167 62.222320 -8.979344 -16.557719 40.471552 14.917599 22.258075 -3.767928 19.908936 24.989466 95.239844 -67.506065 63.394401 5.431378 28.712374 -15.781932 -75.703051 -31.460630 58.334269 51.941902 30.495446 20.022741 39.948755 -71.093431 25.943326 9.278677 71.206587 -82.217828 -51.799571
-74.360999 87.770918 -25.993864 29.977789 45.620036 147.156576 21.613297 54.790750 119.177348 8.280586 -16.330690 -139.093333 -16.333489 23.540809 -7.649984 24.455854 28.252497 -54.874303 190.870743 -102.926176 160.463779 -5.323936 -33.718885 -46.193044 -53.676835 -51.220893 -56.443269 -34.697880 54.018621 72.290599 94.283576 127.980287 193.509259 2.279930 201.784320 63.757193 -6.425214 -16.800746 43.736112 15.333691 22.099473 -4.191770 18.623718 26.645804 96.384768 -67.735327 60.687604 4.164090 28.960627 -16.930314 -76.592164 -32.720711 55.331185 52.776827 28.004455 22.468063 40.386813 -63.647610 26.880841 7.789645 65.178521 -83.327475 -50.574156
-75.513748 88.999909 -27.955043 29.784116 43.859039 144.296489 21.045097 58.639824 123.184415 12.014371 -15.849109 -135.645166 -13.437072 22.004595 -7.849578 22.758528 27.800528 -54.082862 210.388828 -104.440402 176.354883 -3.520643 -28.379924 -48.665856 -52.801467 -50.528486 -59.650918 -28.699488 60.677802 68.582565 99.014800 125.977607 185.244415 -1.489565 200.757824 69.046560 -7.155387 -12.854717 44.405368 14.298133 22.761590 -4.352549 16.470503 27.792405 95.477712 -66.615873 57.638498 2.209126 27.231621 -18.617171 -75.904726 -34.281146 52.038832 52.822405 25.543171 25.162917 40.381140 -57.324227 27.729376 5.275498 68.037946 -80.706335 -40.845112
-76.815041 89.984330 -29.516639 32.232274 41.181000 140.132546 19.343622 59.800027 126.059078 14.791430 -16.884378 -132.700822 -10.303411 19.932311 -8.108978 22.172435 26.689743 -51.995174 232.048574 -105.638690 196.288667 -2.309075 -20.282011 -51.515005 -54.722939 -46.524568 -64.256480 -18.847624 70.151329 61.977833 106.450759 118.608953 177.849629 -4.980016 197.513211 75.415308 -7.896873 -5.703611 38.631400 15.326878 23.239845 -4.177413 14.779655 29.084766 93.728179 -64.670710 54.327915 0.887047 24.678119 -20.868897 -74.148786 -33.655815 48.994579 51.553807 23.732781 25.454510 40.808826 -51.509902 28.487846 2.939004 67.676199 -74.874576 -33.979136
-78.160847 90.817631 -30.443677 35.748636 40.129909 135.866724 18.756984 53.858306 127.368534 21.041550 -20.110505 -131.513981 -7.023683 17.285071 -8.425282 24.402244 29.328252 -46.458066 265.030956 -99.398063 234.752154 1.562803 -12.851703 -52.560877 -54.895149 -44.272180 -70.254595 -3.498528 72.120391 52.092965 113.863782 107.786553 173.351349 -10.303960 187.068117 76.797021 -6.296687 4.294912 39.156976 16.891847 25.257006 -3.938057 11.741644 30.808248 90.465876 -61.876603 51.579826 -0.172531 21.870961 -23.720757 -72.291835 -33.668789 47.957603 50.374892 21.474753 25.481168 42.216023 -46.119411 28.993169 0.709503 64.782118 -67.351129 -29.508138
-79.512252 91.947030 -31.175024 37.532907 40.699250 131.988051 18.392632 54.972501 126.285485 22.395818 -18.190686 -130.706024 -2.512427 16.295076 -8.899647 26.370305 34.137337 -39.091170 292.019738 -92.344485 255.218788 6.288988 -8.839686 -54.556293 -60.850920 -42.702032 -76.780615 9.077108 78.404377 41.399641 116.067891 102.930418 168.059632 -15.633948 184.715745 76.723146 -5.750348 -4.094940 44.842275 16.844455 28.328951 -3.049754 5.950965 32.198915 82.299955 -59.926167 50.817352 -0.326770 14.592317 -12.227897 -69.764344 -34.088617 47.333508 49.096653 17.214450 26.232151 46.099119 -41.294559 28.950498 -1.845747 66.438609 -59.391220 -24.734383
-80.759066 93.283976 -31.673755 41.552357 42.679711 127.642616 17.428056 54.775641 127.002327 18.728058 -11.863979 -130.999996 0.802648 18.567311 -8.954096 29.001772 40.212168 -35.324167 314.276593 -89.560207 269.209420 8.703992 -3.166644 -54.633375 -67.699059 -41.189070 -83.288986 12.070508 79.997395 41.414166 124.486837 101.887544 171.104490 -20.526662 181.016405 77.970188 -11.495040 8.615582 34.277178 17.697327 32.457513 -1.312726 2.667966 33.687869 72.208227 -58.667336 49.130743 -1.191789 18.997304 -25.774105 -65.347541 -33.485071 49.784665 46.395921 13.165850 23.289536 51.383346 -40.531370 30.716413 -3.540368 66.133238 -50.399283 -34.448841
-82.031811 94.809521 -31.946060 46.484625 44.970529 123.707785 15.467301 47.009754 126.373799 14.168672 -10.547326 -132.711559 2.508833 19.118637 -8.408236 29.522639 45.222672 -37.325809 332.904158 -86.592100 280.929505 11.965294 1.903587 -53.195996 -65.930955 -44.781988 -77.834848 8.119113 82.774543 44.627739 135.343422 93.758116 168.376949 -28.311491 180.586418 71.550220 -15.310590 4.987731 41.774642 18.689127 36.933910 1.037732 1.486971 35.098641 59.485688 -57.395350 47.954895 -2.003013 16.298457 -27.013938 -60.992367 -31.909988 53.974002 42.841340 10.798470 18.303162 55.979824 -41.140979 34.016463 -4.610392 57.111781 -49.938249 -37.231740
-83.197392 96.543463 -31.830232 48.487851 43.510364 120.034072 15.226443 38.365207 127.138111 12.103782 -9.502703 -130.879142 1.227918 24.918540 -6.088839 36.779817 46.187805 -41.945032 356.453366 -86.479723 304.672008 14.021513 5.673077 -52.860361 -71.764074 -44.459412 -85.249367 4.296941 82.623084 44.787651 143.208945 88.208942 169.539912 -24.229828 179.940309 70.083622 -16.934617 3.175805 36.825043 17.751032 38.770473 6.880546 3.792848 34.659539 45.405691 -55.475623 46.526583 -1.587661 18.650477 -31.741262 -54.242910 -28.946724 53.383229 42.721457 9.667646 13.156652 61.740450 -41.685304 37.057915 -3.942311 62.097908 -49.519343 -55.048326
-84.376086 98.268422 -31.464052 47.845642 41.220325 118.079791 15.481665 32.846376 126.777750 12.178344 -11.456762 -136.171146 -0.264550 32.719700 -3.877454 32.879052 47.852920 -39.749471 369.425234 -84.012003 321.062550 17.315609 5.474785 -53.693910 -69.625637 -45.737132 -87.633233 1.518606 80.156095 42.847341 144.704524 76.283248 163.837291 -17.090277 178.359967 65.624335 -18.726733 0.651281 45.690953 16.145184 38.130651 15.489954 6.350700 34.479352 28.510615 -52.779191 45.825122 -0.278682 11.280659 -25.282051 -62.167842 -25.704737 50.125484 43.354728 9.843637 9.501277 62.575543 -41.126888 40.059059 -3.761962 57.124222 -49.954023 -67.345556
-85.522517 99.876240 -30.751173 46.442800 38.781387 115.803781 15.384130 22.859082 127.943404 14.404353 -18.685967 -138.998434 -1.120379 37.726505 -1.705870 30.531547 47.562832 -39.596280 383.117441 -82.234084 337.767608 20.036674 7.100774 -53.213669 -73.294152 -46.005747 -94.013872 -1.999963 74.486177 36.898017 147.120431 79.498573 158.718747 -11.213344 181.656736 63.053499 -18.323910 1.586735 43.745063 14.728770 36.881167 26.605991 9.957629 33.108423 12.099253 -51.142442 44.067332 0.421296 16.206623 -31.691917 -48.906316 -23.319465 46.531050 43.833398 9.496979 7.371579 59.175844 -42.021694 42.977224 -3.920826 55.797448 -43.091230 -59.371563
-86.573657 101.193608 -29.997303 49.171744 36.693535 111.904542 19.715522 26.831300 131.078556 15.060641 -18.262824 -141.115055 -0.800047 40.267271 0.281486 28.102969 43.645117 -39.697339 398.942443 -81.242942 355.068723 22.004812 7.349862 -53.586031 -72.327352 -47.254964 -96.621263 -8.330777 77.353866 43.568882 145.627747 86.628245 158.059525 -10.252290 190.602002 59.612730 -19.621009 -0.239689 43.219125 13.837784 38.344580 35.708741 14.755731 29.686137 -1.926831 -49.825001 42.363634 1.639613 14.827477 -30.438782 -47.903539 -19.064342 45.400237 41.885210 9.445543 8.461174 52.683664 -41.513128 46.498989 -4.910457 47.269052 -46.558579 -72.905330
-87.548293 102.149676 -28.772924 51.974820 34.200116 108.217360 22.941064 29.965505 132.196822 15.992915 -18.075100 -141.021413 -0.290171 40.926019 2.224808 27.468596 39.840394 -40.678797 416.889885 -79.345379 371.262773 23.291725 10.889268 -54.262619 -75.788988 -47.568142 -101.093131 -14.879729 77.563321 50.126355 142.628488 101.479023 163.124370 -7.867724 200.635045 60.761800 -20.158818 -2.509618 40.404431 12.923107 40.093757 43.313819 19.251820 24.874092 -12.087652 -49.597098 38.881105 1.960329 30.166453 -38.554355 -47.947467 -16.263898 44.952255 40.033043 9.770736 10.616495 47.043966 -42.032793 47.454293 -5.104772 49.313436 -41.745092 -61.027850
